<?xml version="1.0" encoding="UTF-8"?>
<!DOCTYPE svg PUBLIC "-//W3C//DTD SVG 1.1//EN" "http://www.w3.org/Graphics/SVG/1.1/DTD/svg11.dtd">
<svg version="1.1" xmlns="http://www.w3.org/2000/svg" xmlns:xlink="http://www.w3.org/1999/xlink" x="0" y="0" width="250" height="25" viewBox="0, 0, 250, 25">
  <g id="Layer_1">
    <g>
      <g>
        <path d="M15.822,7.047 C15.29,6.333 14.596,5.812 13.74,5.482 C12.885,5.154 12.048,4.99 11.231,4.99 C10.185,4.99 9.235,5.177 8.379,5.553 C7.524,5.929 6.787,6.446 6.169,7.104 C5.551,7.762 5.076,8.532 4.744,9.415 C4.411,10.298 4.245,11.257 4.245,12.29 C4.245,13.38 4.406,14.376 4.729,15.278 C5.053,16.181 5.514,16.955 6.112,17.604 C6.711,18.252 7.428,18.755 8.265,19.112 C9.102,19.47 10.043,19.648 11.088,19.648 C12.172,19.648 13.131,19.437 13.968,19.014 C14.805,18.591 15.48,18.032 15.993,17.336 L18.873,19.338 C17.979,20.447 16.886,21.307 15.594,21.917 C14.301,22.528 12.789,22.833 11.06,22.833 C9.482,22.833 8.032,22.574 6.711,22.059 C5.39,21.541 4.254,20.818 3.304,19.887 C2.353,18.957 1.611,17.848 1.08,16.561 C0.547,15.274 0.281,13.85 0.281,12.29 C0.281,10.693 0.561,9.251 1.122,7.964 C1.683,6.676 2.453,5.581 3.432,4.679 C4.411,3.777 5.566,3.082 6.897,2.593 C8.227,2.104 9.672,1.86 11.231,1.86 C11.877,1.86 12.552,1.921 13.255,2.043 C13.958,2.166 14.634,2.353 15.28,2.607 C15.926,2.86 16.535,3.176 17.105,3.551 C17.675,3.928 18.16,4.379 18.559,4.905 L15.822,7.047" fill="#FFFFFF"/>
        <path d="M19.671,2.368 L23.264,2.368 L23.264,22.326 L19.671,22.326 z" fill="#FFFFFF"/>
        <path d="M26.287,2.368 L39.66,2.368 L39.66,5.468 L29.88,5.468 L29.88,10.543 L39.147,10.543 L39.147,13.531 L29.88,13.531 L29.88,19.169 L40.174,19.169 L40.174,22.326 L26.287,22.326 L26.287,2.368" fill="#FFFFFF"/>
        <path d="M42.255,2.368 L45.848,2.368 L45.848,19.169 L54.43,19.169 L54.43,22.326 L42.255,22.326 L42.255,2.368" fill="#FFFFFF"/>
        <path d="M57.481,12.29 C57.481,13.362 57.648,14.344 57.98,15.236 C58.313,16.129 58.788,16.904 59.406,17.562 C60.024,18.22 60.756,18.732 61.602,19.098 C62.448,19.465 63.384,19.648 64.411,19.648 C65.437,19.648 66.378,19.465 67.234,19.098 C68.089,18.732 68.826,18.22 69.443,17.562 C70.061,16.904 70.537,16.129 70.869,15.236 C71.202,14.344 71.368,13.362 71.368,12.29 C71.368,11.257 71.202,10.298 70.869,9.415 C70.537,8.532 70.066,7.762 69.458,7.104 C68.849,6.446 68.118,5.929 67.262,5.553 C66.407,5.177 65.456,4.99 64.411,4.99 C63.365,4.99 62.419,5.177 61.573,5.553 C60.727,5.929 60,6.446 59.392,7.104 C58.784,7.762 58.313,8.532 57.98,9.415 C57.648,10.298 57.481,11.257 57.481,12.29 z M53.575,12.29 C53.575,10.693 53.846,9.251 54.388,7.964 C54.929,6.676 55.68,5.581 56.64,4.679 C57.6,3.777 58.74,3.082 60.062,2.593 C61.383,2.104 62.823,1.86 64.382,1.86 C65.96,1.86 67.414,2.104 68.745,2.593 C70.075,3.082 71.226,3.777 72.195,4.679 C73.165,5.581 73.92,6.676 74.462,7.964 C75.004,9.251 75.275,10.693 75.275,12.29 C75.275,13.85 75.004,15.274 74.462,16.561 C73.92,17.848 73.165,18.957 72.195,19.887 C71.226,20.818 70.075,21.541 68.745,22.059 C67.414,22.574 65.96,22.833 64.382,22.833 C62.823,22.833 61.383,22.574 60.062,22.059 C58.74,21.541 57.6,20.818 56.64,19.887 C55.68,18.957 54.929,17.848 54.388,16.561 C53.846,15.274 53.575,13.85 53.575,12.29" fill="#FFFFFF"/>
        <path d="M97.602,7.047 C97.07,6.333 96.376,5.812 95.521,5.482 C94.665,5.154 93.828,4.99 93.011,4.99 C91.965,4.99 91.015,5.177 90.16,5.553 C89.304,5.929 88.568,6.446 87.95,7.104 C87.331,7.762 86.856,8.532 86.524,9.415 C86.191,10.298 86.025,11.257 86.025,12.29 C86.025,13.38 86.186,14.376 86.51,15.278 C86.833,16.181 87.294,16.955 87.893,17.604 C88.492,18.252 89.209,18.755 90.046,19.112 C90.882,19.47 91.823,19.648 92.869,19.648 C93.952,19.648 94.912,19.437 95.749,19.014 C96.585,18.591 97.26,18.032 97.773,17.336 L100.653,19.338 C99.759,20.447 98.667,21.307 97.374,21.917 C96.081,22.528 94.57,22.833 92.84,22.833 C91.262,22.833 89.813,22.574 88.492,22.059 C87.17,21.541 86.035,20.818 85.084,19.887 C84.133,18.957 83.392,17.848 82.86,16.561 C82.328,15.274 82.061,13.85 82.061,12.29 C82.061,10.693 82.341,9.251 82.903,7.964 C83.463,6.676 84.233,5.581 85.212,4.679 C86.191,3.777 87.346,3.082 88.677,2.593 C90.007,2.104 91.452,1.86 93.011,1.86 C93.658,1.86 94.332,1.921 95.036,2.043 C95.739,2.166 96.414,2.353 97.06,2.607 C97.707,2.86 98.315,3.176 98.885,3.551 C99.456,3.928 99.94,4.379 100.34,4.905 L97.602,7.047" fill="#FFFFFF"/>
        <path d="M104.047,12.29 C104.047,13.362 104.213,14.344 104.546,15.236 C104.878,16.129 105.353,16.904 105.971,17.562 C106.589,18.22 107.321,18.732 108.167,19.098 C109.013,19.465 109.949,19.648 110.976,19.648 C112.002,19.648 112.943,19.465 113.799,19.098 C114.654,18.732 115.391,18.22 116.009,17.562 C116.626,16.904 117.102,16.129 117.434,15.236 C117.767,14.344 117.933,13.362 117.933,12.29 C117.933,11.257 117.767,10.298 117.434,9.415 C117.102,8.532 116.631,7.762 116.023,7.104 C115.414,6.446 114.683,5.929 113.827,5.553 C112.972,5.177 112.021,4.99 110.976,4.99 C109.93,4.99 108.984,5.177 108.138,5.553 C107.292,5.929 106.565,6.446 105.957,7.104 C105.349,7.762 104.878,8.532 104.546,9.415 C104.213,10.298 104.047,11.257 104.047,12.29 z M100.14,12.29 C100.14,10.693 100.411,9.251 100.953,7.964 C101.494,6.676 102.245,5.581 103.205,4.679 C104.165,3.777 105.306,3.082 106.627,2.593 C107.948,2.104 109.388,1.86 110.947,1.86 C112.525,1.86 113.979,2.104 115.31,2.593 C116.64,3.082 117.791,3.777 118.76,4.679 C119.73,5.581 120.485,6.676 121.027,7.964 C121.569,9.251 121.84,10.693 121.84,12.29 C121.84,13.85 121.569,15.274 121.027,16.561 C120.485,17.848 119.73,18.957 118.76,19.887 C117.791,20.818 116.64,21.541 115.31,22.059 C113.979,22.574 112.525,22.833 110.947,22.833 C109.388,22.833 107.948,22.574 106.627,22.059 C105.306,21.541 104.165,20.818 103.205,19.887 C102.245,18.957 101.494,17.848 100.953,16.561 C100.411,15.274 100.14,13.85 100.14,12.29" fill="#FFFFFF"/>
        <path d="M123.893,2.368 L128.655,2.368 L138.037,17.308 L138.094,17.308 L138.094,2.368 L141.687,2.368 L141.687,22.326 L137.124,22.326 L127.543,6.906 L127.486,6.906 L127.486,22.326 L123.893,22.326 L123.893,2.368" fill="#FFFFFF"/>
        <path d="M159.28,7.047 C158.748,6.333 158.054,5.812 157.199,5.482 C156.343,5.154 155.507,4.99 154.689,4.99 C153.644,4.99 152.694,5.177 151.838,5.553 C150.982,5.929 150.245,6.446 149.628,7.104 C149.01,7.762 148.535,8.532 148.203,9.415 C147.869,10.298 147.704,11.257 147.704,12.29 C147.704,13.38 147.865,14.376 148.188,15.278 C148.511,16.181 148.973,16.955 149.571,17.604 C150.17,18.252 150.887,18.755 151.724,19.112 C152.56,19.47 153.501,19.648 154.547,19.648 C155.63,19.648 156.59,19.437 157.427,19.014 C158.263,18.591 158.938,18.032 159.451,17.336 L162.331,19.338 C161.437,20.447 160.345,21.307 159.053,21.917 C157.759,22.528 156.248,22.833 154.519,22.833 C152.94,22.833 151.49,22.574 150.17,22.059 C148.848,21.541 147.713,20.818 146.762,19.887 C145.811,18.957 145.07,17.848 144.538,16.561 C144.005,15.274 143.74,13.85 143.74,12.29 C143.74,10.693 144.02,9.251 144.581,7.964 C145.141,6.676 145.911,5.581 146.89,4.679 C147.869,3.777 149.024,3.082 150.355,2.593 C151.686,2.104 153.13,1.86 154.689,1.86 C155.335,1.86 156.01,1.921 156.714,2.043 C157.417,2.166 158.092,2.353 158.738,2.607 C159.385,2.86 159.993,3.176 160.563,3.551 C161.134,3.928 161.618,4.379 162.018,4.905 L159.28,7.047" fill="#FFFFFF"/>
        <path d="M163.13,2.368 L176.503,2.368 L176.503,5.468 L166.723,5.468 L166.723,10.543 L175.99,10.543 L175.99,13.531 L166.723,13.531 L166.723,19.169 L177.017,19.169 L177.017,22.326 L163.13,22.326 L163.13,2.368" fill="#FFFFFF"/>
        <path d="M185.2,11.078 C185.789,11.078 186.35,11.036 186.882,10.951 C187.415,10.867 187.89,10.716 188.308,10.5 C188.726,10.284 189.059,9.989 189.307,9.613 C189.553,9.236 189.677,8.748 189.677,8.146 C189.677,7.564 189.553,7.089 189.307,6.723 C189.059,6.356 188.731,6.07 188.322,5.863 C187.914,5.657 187.448,5.52 186.926,5.454 C186.402,5.388 185.866,5.356 185.314,5.356 L182.691,5.356 L182.691,11.078 L185.2,11.078 z M179.098,2.368 L185.685,2.368 C186.844,2.368 187.89,2.471 188.821,2.678 C189.753,2.884 190.551,3.223 191.217,3.692 C191.882,4.163 192.396,4.764 192.757,5.497 C193.118,6.229 193.298,7.113 193.298,8.146 C193.298,9.256 193.089,10.186 192.671,10.937 C192.253,11.689 191.688,12.295 190.975,12.755 C190.262,13.216 189.43,13.549 188.48,13.756 C187.529,13.963 186.521,14.066 185.457,14.066 L182.691,14.066 L182.691,22.326 L179.098,22.326 L179.098,2.368" fill="#FFFFFF"/>
        <path d="M198.973,5.468 L192.785,5.468 L192.785,2.368 L208.753,2.368 L208.753,5.468 L202.566,5.468 L202.566,22.326 L198.973,22.326 L198.973,5.468" fill="#FFFFFF"/>
        <path d="M219.959,6.54 C219.579,6.051 219.042,5.642 218.348,5.313 C217.654,4.985 216.956,4.82 216.252,4.82 C215.834,4.82 215.415,4.872 214.998,4.975 C214.579,5.078 214.199,5.239 213.857,5.454 C213.515,5.67 213.234,5.952 213.016,6.3 C212.797,6.648 212.688,7.066 212.688,7.554 C212.688,8.006 212.783,8.391 212.973,8.711 C213.163,9.03 213.425,9.302 213.757,9.528 C214.09,9.753 214.494,9.951 214.969,10.12 C215.444,10.289 215.967,10.458 216.538,10.628 C217.183,10.834 217.854,11.069 218.548,11.332 C219.242,11.595 219.878,11.943 220.458,12.374 C221.038,12.808 221.513,13.352 221.884,14.01 C222.255,14.668 222.44,15.486 222.44,16.463 C222.44,17.534 222.241,18.469 221.841,19.267 C221.442,20.066 220.91,20.729 220.244,21.255 C219.579,21.781 218.799,22.176 217.906,22.439 C217.013,22.702 216.071,22.833 215.083,22.833 C213.772,22.833 212.488,22.594 211.234,22.114 C209.979,21.635 208.953,20.926 208.154,19.987 L210.72,17.618 C211.214,18.295 211.875,18.83 212.702,19.225 C213.529,19.62 214.342,19.817 215.14,19.817 C215.558,19.817 215.986,19.765 216.423,19.662 C216.86,19.559 217.255,19.385 217.607,19.14 C217.959,18.896 218.243,18.591 218.462,18.225 C218.68,17.858 218.79,17.403 218.79,16.857 C218.79,16.331 218.666,15.894 218.42,15.546 C218.172,15.199 217.839,14.898 217.422,14.644 C217.003,14.39 216.509,14.17 215.939,13.982 C215.368,13.794 214.77,13.597 214.142,13.39 C213.533,13.202 212.926,12.977 212.317,12.713 C211.709,12.45 211.162,12.103 210.678,11.67 C210.193,11.238 209.798,10.707 209.494,10.078 C209.19,9.448 209.038,8.664 209.038,7.724 C209.038,6.709 209.252,5.835 209.68,5.102 C210.107,4.369 210.668,3.763 211.362,3.284 C212.056,2.804 212.845,2.447 213.729,2.212 C214.613,1.977 215.511,1.86 216.423,1.86 C217.45,1.86 218.491,2.039 219.546,2.396 C220.601,2.753 221.518,3.289 222.298,4.002 L219.959,6.54" fill="#FFFFFF"/>
        <path d="M225.703,12.69 L227.484,12.69 L227.484,22.582 L225.703,22.582 z" fill="#FFFFFF"/>
        <path d="M228.982,12.69 L231.342,12.69 L235.991,20.095 L236.02,20.095 L236.02,12.69 L237.801,12.69 L237.801,22.582 L235.539,22.582 L230.791,14.939 L230.762,14.939 L230.762,22.582 L228.982,22.582 L228.982,12.69" fill="#FFFFFF"/>
        <path d="M246.42,20.625 C246.42,20.51 246.437,20.4 246.454,20.29 C246.222,20.551 245.94,20.769 245.603,20.94 C245.188,21.15 244.712,21.255 244.175,21.255 C243.656,21.255 243.19,21.166 242.776,20.989 C242.361,20.812 242.005,20.563 241.709,20.242 C241.412,19.92 241.183,19.536 241.023,19.089 C240.862,18.641 240.783,18.148 240.783,17.608 C240.783,17.096 240.865,16.621 241.03,16.183 C241.195,15.745 241.431,15.363 241.737,15.037 C242.043,14.711 242.408,14.455 242.832,14.269 C243.256,14.082 243.727,13.989 244.245,13.989 C244.651,13.989 245.065,14.071 245.489,14.234 C245.913,14.397 246.257,14.655 246.521,15.009 L247.878,13.947 C247.68,13.687 247.439,13.463 247.157,13.276 C246.874,13.09 246.572,12.934 246.252,12.809 C245.932,12.683 245.597,12.59 245.249,12.529 C244.9,12.469 244.566,12.438 244.245,12.438 C243.472,12.438 242.757,12.56 242.097,12.801 C241.437,13.043 240.865,13.389 240.38,13.836 C239.894,14.283 239.513,14.825 239.235,15.464 C238.957,16.102 238.818,16.817 238.818,17.608 C238.818,18.381 238.95,19.087 239.214,19.724 C239.477,20.362 239.845,20.912 240.316,21.374 C240.787,21.834 241.35,22.193 242.005,22.449 C242.66,22.705 243.378,22.833 244.161,22.833 C245.017,22.833 245.767,22.682 246.408,22.379 C246.604,22.286 246.789,22.178 246.967,22.061 C246.63,21.673 246.42,21.176 246.42,20.625" fill="#FFFFFF"/>
      </g>
      <path d="M250,20.529 C250,21.323 249.348,21.967 248.544,21.967 C247.741,21.967 247.089,21.323 247.089,20.529 C247.089,19.734 247.741,19.09 248.544,19.09 C249.348,19.09 250,19.734 250,20.529" fill="#FFFFFF"/>
    </g>
  </g>
</svg>
