<?xml version="1.0" encoding="UTF-8"?>
<!DOCTYPE svg PUBLIC "-//W3C//DTD SVG 1.1//EN" "http://www.w3.org/Graphics/SVG/1.1/DTD/svg11.dtd">
<svg version="1.1" xmlns="http://www.w3.org/2000/svg" xmlns:xlink="http://www.w3.org/1999/xlink" x="0" y="0" width="25" height="25" viewBox="0, 0, 25, 25">
  <g id="Layer_1">
    <path d="M24.908,14.592 L24.908,23.801 L19.568,23.801 L19.568,15.209 C19.568,13.051 18.797,11.578 16.865,11.578 C15.389,11.578 14.512,12.57 14.125,13.531 C13.985,13.874 13.948,14.351 13.948,14.832 L13.948,23.801 L8.608,23.801 C8.608,23.801 8.68,9.248 8.608,7.742 L13.948,7.742 L13.948,10.017 C13.938,10.035 13.923,10.053 13.913,10.07 L13.948,10.07 L13.948,10.017 C14.658,8.926 15.924,7.365 18.76,7.365 C22.274,7.365 24.908,9.659 24.908,14.592 z M3.021,-0 C1.195,-0 -0,1.199 -0,2.774 C-0,4.316 1.161,5.55 2.951,5.55 L2.986,5.55 C4.849,5.55 6.007,4.316 6.007,2.774 C5.972,1.199 4.849,-0 3.021,-0 z M0.318,23.801 L5.655,23.801 L5.655,7.742 L0.318,7.742 z M0.318,23.801" fill="#FFFFFF" display="none"/>
    <path d="M24.982,5.353 C24.034,5.773 23.016,6.057 21.947,6.185 C23.038,5.531 23.876,4.495 24.27,3.261 C23.249,3.867 22.118,4.307 20.915,4.544 C19.951,3.517 18.577,2.875 17.057,2.875 C14.139,2.875 11.773,5.241 11.773,8.159 C11.773,8.573 11.82,8.977 11.91,9.363 C7.518,9.143 3.625,7.039 1.018,3.842 C0.563,4.623 0.303,5.53 0.303,6.499 C0.303,8.332 1.236,9.95 2.654,10.897 C1.787,10.87 0.973,10.632 0.26,10.236 C0.26,10.258 0.26,10.28 0.26,10.303 C0.26,12.863 2.081,14.999 4.499,15.484 C4.055,15.605 3.588,15.669 3.106,15.669 C2.766,15.669 2.435,15.636 2.112,15.575 C2.785,17.674 4.736,19.202 7.048,19.244 C5.24,20.662 2.961,21.506 0.486,21.506 C0.059,21.506 -0.361,21.481 -0.775,21.433 C1.564,22.932 4.341,23.807 7.326,23.807 C17.045,23.807 22.36,15.755 22.36,8.772 C22.36,8.543 22.355,8.315 22.345,8.088 C23.377,7.343 24.273,6.413 24.982,5.353" fill="#FFFFFF"/>
  </g>
</svg>
